<?xml version="1.0" encoding="utf-8"?>
<!-- Generator: Adobe Illustrator 21.0.2, SVG Export Plug-In . SVG Version: 6.00 Build 0)  -->
<svg version="1.1" id="Слой_1" xmlns="http://www.w3.org/2000/svg" xmlns:xlink="http://www.w3.org/1999/xlink" x="0px" y="0px"
	 viewBox="0 0 23.4 23.3" enable-background="new 0 0 23.4 23.3" xml:space="preserve">
<path d="M19.1,23.1c-0.1,0-0.2,0-0.3,0c-3.2-0.4-6.4-1.5-9.1-3.2c-2.5-1.6-4.7-3.8-6.3-6.3c-1.8-2.7-2.9-5.9-3.2-9.1
	C0.2,3.6,0.5,2.9,1,2.2c0.5-0.6,1.2-1,2-1.1c0.1,0,0.2,0,0.3,0h3c0,0,0,0,0,0c1.5,0,2.8,1.1,3,2.6c0.1,0.9,0.3,1.8,0.6,2.6
	c0.4,1.1,0.1,2.3-0.7,3.2l-0.7,0.7c1.2,1.8,2.7,3.4,4.6,4.6l0.7-0.7c0.8-0.8,2.1-1.1,3.2-0.7c0.8,0.3,1.7,0.5,2.6,0.6
	c1.5,0.2,2.6,1.5,2.6,3v3c0,0.8-0.3,1.6-0.9,2.1S20,23.1,19.1,23.1C19.2,23.1,19.2,23.1,19.1,23.1z M6.3,3.2
	C6.3,3.2,6.3,3.2,6.3,3.2h-3c-0.4,0-0.6,0.2-0.8,0.4C2.3,3.7,2.3,4,2.3,4.3c0.3,2.9,1.3,5.8,2.9,8.2c1.5,2.3,3.4,4.3,5.7,5.7
	c2.5,1.6,5.3,2.6,8.2,2.9c0.4,0,0.6-0.1,0.8-0.3c0.2-0.2,0.3-0.4,0.3-0.7v-3c0,0,0,0,0,0c0-0.5-0.4-0.9-0.9-1c-1-0.1-2-0.4-3-0.8
	c-0.4-0.1-0.8-0.1-1.1,0.2L14,16.8c-0.3,0.3-0.8,0.4-1.2,0.2c-2.7-1.5-4.9-3.7-6.4-6.4c-0.2-0.4-0.2-0.9,0.2-1.2l1.3-1.3
	C8.1,7.8,8.2,7.4,8,7c-0.4-1-0.6-2-0.8-3C7.2,3.5,6.8,3.2,6.3,3.2z M18.2,10.1c-0.5,0-0.9-0.3-1-0.8c-0.3-1.6-1.6-2.8-3.2-3.2
	C13.5,6,13.1,5.5,13.2,5c0.1-0.5,0.6-0.9,1.2-0.8c2.4,0.5,4.3,2.3,4.7,4.7c0.1,0.5-0.2,1.1-0.8,1.2C18.3,10.1,18.2,10.1,18.2,10.1z
	 M22.2,10.1c-0.5,0-0.9-0.4-1-0.9c-0.4-3.7-3.3-6.6-7.1-7.1c-0.5-0.1-0.9-0.6-0.9-1.1c0.1-0.5,0.6-0.9,1.1-0.9
	C19,0.7,22.6,4.3,23.2,9c0.1,0.5-0.3,1-0.9,1.1C22.2,10.1,22.2,10.1,22.2,10.1z"/>
</svg>
