<?xml version="1.0" encoding="UTF-8"?><!DOCTYPE svg PUBLIC "-//W3C//DTD SVG 1.1//EN" "http://www.w3.org/Graphics/SVG/1.1/DTD/svg11.dtd"><svg xmlns="http://www.w3.org/2000/svg"><symbol id="icon-arrow-l" viewBox="0 0 192 320">
    <path d="M41.5 160L192 300.7 171.3 320 0 160 171.3 0 192 19.4z"/>
</symbol><symbol id="icon-arrow-r" viewBox="0 0 192 320">
    <path d="M0 19.4L20.7 0 192 160 20.7 320 0 300.7 150.5 160z"/>
</symbol><symbol id="icon-check" viewBox="0 0 18.2 14">
    <title/>
    <path d="M6 10.9L1.8 6.7.4 8.1 6 13.7l12-12L16.6.3 6 10.9z"/>
</symbol><symbol id="icon-facebook" viewBox="0 0 10 19">
    <title>
        facebook
    </title>
    <path d="M9.766.157v2.946H8.014c-.64 0-1.071.134-1.295.402-.223.268-.335.67-.335 1.205v2.11h3.27l-.435 3.303H6.384v8.471H2.97v-8.47H.123V6.82H2.97V4.387c0-1.384.387-2.457 1.161-3.22C4.904.404 5.934.023 7.222.023c1.093 0 1.941.045 2.544.134z" fill-rule="evenodd"/>
</symbol><symbol id="icon-medal" viewBox="15 141 384.001 512">
    <path d="M324.44 459.229c.981-2.304 2.027-4.331 3.243-5.547 2.88-2.859 9.643-4.907 16.192-6.891 10.88-3.307 23.232-7.04 29.44-17.771 6.123-10.581 3.221-23.04.683-34.027-1.579-6.741-3.2-13.717-2.091-17.792.96-3.733 5.931-9.003 10.304-13.653C390.083 355.165 399 345.672 399 333s-8.917-22.165-16.789-30.549c-4.373-4.651-9.323-9.92-10.304-13.632-1.088-4.075.533-11.072 2.091-17.813 2.539-10.987 5.44-23.445-.683-34.048-6.208-10.731-18.539-14.464-29.44-17.749-6.549-1.984-13.291-4.032-16.171-6.891s-4.907-9.621-6.891-16.171c-3.285-10.88-7.019-23.211-17.749-29.419-10.645-6.165-23.061-3.264-34.069-.704-6.741 1.557-13.696 3.179-17.792 2.091-3.733-1.003-9.003-5.952-13.653-10.325C229.165 149.917 219.672 141 207 141c-12.651 0-22.144 8.917-30.528 16.789-4.672 4.373-9.941 9.323-13.675 10.325-4.096 1.109-11.072-.533-17.792-2.091-11.029-2.56-23.467-5.44-34.069.683-10.709 6.208-14.443 18.539-17.728 29.44-1.984 6.549-4.032 13.312-6.891 16.171-2.88 2.859-9.643 4.907-16.192 6.891-10.88 3.307-23.232 7.04-29.44 17.771-6.123 10.581-3.221 23.04-.683 34.027 1.579 6.741 3.2 13.717 2.091 17.792-.96 3.733-5.931 9.003-10.304 13.653C23.917 310.835 15 320.349 15 333s8.917 22.165 16.789 30.549c4.373 4.651 9.323 9.92 10.304 13.632 1.088 4.075-.533 11.072-2.091 17.813-2.539 10.987-5.44 23.445.683 34.048 6.208 10.731 18.539 14.464 29.44 17.749 6.549 1.984 13.291 4.032 16.171 6.891 1.216 1.216 2.261 3.221 3.243 5.525L15.811 638.259a10.678 10.678 0 0 0 2.581 11.883 10.69 10.69 0 0 0 7.275 2.859c1.621 0 3.243-.363 4.779-1.152l79.787-39.893 58.859 39.232c2.709 1.792 6.101 2.24 9.195 1.28a10.62 10.62 0 0 0 6.699-6.4l23.296-62.123 20.587 61.76a10.772 10.772 0 0 0 6.677 6.72 10.645 10.645 0 0 0 9.365-1.216l58.859-39.232 79.787 39.893a10.674 10.674 0 0 0 12.032-1.706 10.675 10.675 0 0 0 2.581-11.883l-73.73-179.052zm-127.424 93.995l-27.285 72.747-52.821-35.2c-3.221-2.112-7.296-2.389-10.688-.661L46.36 620.04l54.229-131.733c2.56 4.352 5.717 8.277 10.347 10.965 10.645 6.165 23.083 3.264 34.069.704 6.72-1.557 13.675-3.221 17.792-2.091 3.733 1.003 9.003 5.952 13.653 10.325 3.008 2.816 6.229 5.653 9.6 8.277.085.405.021.811.149 1.216l11.477 34.453c-.191.385-.511.663-.66 1.068zm9.963-49.557c-4.203 0-10.432-5.845-15.936-11.008-6.784-6.4-13.824-12.992-22.741-15.381-2.88-.768-5.781-1.088-8.704-1.088-6.464 0-13.013 1.536-19.392 3.008-6.827 1.6-15.275 3.563-18.56 1.621-3.435-1.984-5.867-10.027-8.021-17.131-2.731-9.067-5.547-18.432-12.224-25.088-6.656-6.656-16.021-9.493-25.088-12.224-7.104-2.133-15.147-4.565-17.152-8-1.899-3.307.064-11.755 1.643-18.56 2.155-9.301 4.373-18.901 1.92-28.139-2.411-8.917-9.003-15.936-15.381-22.741-5.184-5.504-11.029-11.733-11.029-15.936 0-4.203 5.867-10.432 11.029-15.936 6.379-6.784 12.992-13.824 15.381-22.741 2.453-9.216.235-18.816-1.92-28.117-1.579-6.805-3.541-15.253-1.643-18.539 2.005-3.435 10.048-5.867 17.173-8.021 9.067-2.731 18.411-5.568 25.088-12.224 6.635-6.635 9.472-16.021 12.224-25.067 2.155-7.104 4.587-15.168 8-17.152 3.349-1.877 11.776.064 18.539 1.643 9.259 2.155 18.837 4.395 28.117 1.92 8.917-2.389 15.957-9.003 22.763-15.381 5.483-5.163 11.712-11.008 15.915-11.008s10.432 5.845 15.936 11.008c6.784 6.4 13.824 12.992 22.741 15.381 9.259 2.475 18.859.235 28.096-1.92 6.805-1.6 15.275-3.541 18.56-1.621 3.435 1.984 5.867 10.027 8.021 17.131 2.731 9.067 5.547 18.432 12.224 25.088 6.656 6.656 16.021 9.493 25.088 12.224 7.104 2.133 15.147 4.565 17.152 8 1.899 3.307-.064 11.755-1.643 18.56-2.155 9.301-4.373 18.901-1.92 28.139 2.411 8.917 9.003 15.936 15.381 22.741 5.184 5.504 11.029 11.733 11.029 15.936 0 4.203-5.867 10.432-11.029 15.936-6.379 6.784-12.992 13.824-15.381 22.741-2.453 9.216-.235 18.816 1.92 28.117 1.579 6.805 3.541 15.253 1.643 18.539-2.005 3.435-10.048 5.867-17.173 8.021-9.067 2.731-18.411 5.568-25.088 12.224-6.635 6.635-9.472 16.021-12.224 25.067-2.155 7.104-4.587 15.168-8 17.152-3.285 1.899-11.755-.064-18.539-1.643-9.259-2.155-18.837-4.395-28.117-1.92-8.917 2.389-15.957 9.003-22.763 15.381-5.483 5.162-11.713 11.008-15.915 11.008zm100.778 86.464a10.607 10.607 0 0 0-10.688.661l-52.373 34.923-33.792-101.376c10.667-1.621 19.157-9.109 26.624-16.128 4.672-4.373 9.941-9.323 13.675-10.325 4.117-1.088 11.072.533 17.792 2.091 11.029 2.56 23.467 5.44 34.069-.683 4.608-2.667 7.765-6.613 10.325-10.965l54.229 131.733-59.861-29.931zM335 333c0-70.592-57.408-128-128-128S79 262.408 79 333s57.408 128 128 128 128-57.408 128-128zM207 439.667c-58.816 0-106.667-47.851-106.667-106.667S148.184 226.333 207 226.333 313.667 274.184 313.667 333 265.816 439.667 207 439.667z"/>
</symbol><symbol id="icon-phone" viewBox="0 0 23.4 23.3">
    <path d="M19.1 23.1h-.3c-3.2-.4-6.4-1.5-9.1-3.2-2.5-1.6-4.7-3.8-6.3-6.3C1.6 10.9.5 7.7.2 4.5c0-.9.3-1.6.8-2.3.5-.6 1.2-1 2-1.1h3.3c1.5 0 2.8 1.1 3 2.6.1.9.3 1.8.6 2.6.4 1.1.1 2.3-.7 3.2l-.7.7c1.2 1.8 2.7 3.4 4.6 4.6l.7-.7c.8-.8 2.1-1.1 3.2-.7.8.3 1.7.5 2.6.6 1.5.2 2.6 1.5 2.6 3v3c0 .8-.3 1.6-.9 2.1s-1.3 1-2.2 1c.1 0 .1 0 0 0zM6.3 3.2h-3c-.4 0-.6.2-.8.4-.2.1-.2.4-.2.7.3 2.9 1.3 5.8 2.9 8.2 1.5 2.3 3.4 4.3 5.7 5.7 2.5 1.6 5.3 2.6 8.2 2.9.4 0 .6-.1.8-.3.2-.2.3-.4.3-.7v-3c0-.5-.4-.9-.9-1-1-.1-2-.4-3-.8-.4-.1-.8-.1-1.1.2L14 16.8c-.3.3-.8.4-1.2.2-2.7-1.5-4.9-3.7-6.4-6.4-.2-.4-.2-.9.2-1.2l1.3-1.3c.2-.3.3-.7.1-1.1-.4-1-.6-2-.8-3 0-.5-.4-.8-.9-.8zm11.9 6.9c-.5 0-.9-.3-1-.8-.3-1.6-1.6-2.8-3.2-3.2-.5-.1-.9-.6-.8-1.1.1-.5.6-.9 1.2-.8 2.4.5 4.3 2.3 4.7 4.7.1.5-.2 1.1-.8 1.2h-.1zm4 0c-.5 0-.9-.4-1-.9-.4-3.7-3.3-6.6-7.1-7.1-.5-.1-.9-.6-.9-1.1.1-.5.6-.9 1.1-.9 4.7.6 8.3 4.2 8.9 8.9.1.5-.3 1-.9 1.1h-.1z"/>
</symbol></svg>