<?xml version="1.0" encoding="UTF-8"?><!DOCTYPE svg PUBLIC "-//W3C//DTD SVG 1.1//EN" "http://www.w3.org/Graphics/SVG/1.1/DTD/svg11.dtd"><svg xmlns="http://www.w3.org/2000/svg"><symbol id="icon-facebook" viewBox="0 0 10 19">
    <title>
        facebook
    </title>
    <path d="M9.766.157v2.946H8.014c-.64 0-1.071.134-1.295.402-.223.268-.335.67-.335 1.205v2.11h3.27l-.435 3.303H6.384v8.471H2.97v-8.47H.123V6.82H2.97V4.387c0-1.384.387-2.457 1.161-3.22C4.904.404 5.934.023 7.222.023c1.093 0 1.941.045 2.544.134z" fill-rule="evenodd"/>
</symbol><symbol id="icon-phone" viewBox="0 0 23.4 23.3">
    <path d="M19.1 23.1h-.3c-3.2-.4-6.4-1.5-9.1-3.2-2.5-1.6-4.7-3.8-6.3-6.3C1.6 10.9.5 7.7.2 4.5c0-.9.3-1.6.8-2.3.5-.6 1.2-1 2-1.1h3.3c1.5 0 2.8 1.1 3 2.6.1.9.3 1.8.6 2.6.4 1.1.1 2.3-.7 3.2l-.7.7c1.2 1.8 2.7 3.4 4.6 4.6l.7-.7c.8-.8 2.1-1.1 3.2-.7.8.3 1.7.5 2.6.6 1.5.2 2.6 1.5 2.6 3v3c0 .8-.3 1.6-.9 2.1s-1.3 1-2.2 1c.1 0 .1 0 0 0zM6.3 3.2h-3c-.4 0-.6.2-.8.4-.2.1-.2.4-.2.7.3 2.9 1.3 5.8 2.9 8.2 1.5 2.3 3.4 4.3 5.7 5.7 2.5 1.6 5.3 2.6 8.2 2.9.4 0 .6-.1.8-.3.2-.2.3-.4.3-.7v-3c0-.5-.4-.9-.9-1-1-.1-2-.4-3-.8-.4-.1-.8-.1-1.1.2L14 16.8c-.3.3-.8.4-1.2.2-2.7-1.5-4.9-3.7-6.4-6.4-.2-.4-.2-.9.2-1.2l1.3-1.3c.2-.3.3-.7.1-1.1-.4-1-.6-2-.8-3 0-.5-.4-.8-.9-.8zm11.9 6.9c-.5 0-.9-.3-1-.8-.3-1.6-1.6-2.8-3.2-3.2-.5-.1-.9-.6-.8-1.1.1-.5.6-.9 1.2-.8 2.4.5 4.3 2.3 4.7 4.7.1.5-.2 1.1-.8 1.2h-.1zm4 0c-.5 0-.9-.4-1-.9-.4-3.7-3.3-6.6-7.1-7.1-.5-.1-.9-.6-.9-1.1.1-.5.6-.9 1.1-.9 4.7.6 8.3 4.2 8.9 8.9.1.5-.3 1-.9 1.1h-.1z"/>
</symbol></svg>